<svg xmlns="http://www.w3.org/2000/svg" version="1.1" xmlns:xlink="http://www.w3.org/1999/xlink" xmlns:svgjs="http://svgjs.com/svgjs" width="1440" height="1500" preserveAspectRatio="none" viewBox="0 0 1440 1500"><g mask="url(&quot;#SvgjsMask1345&quot;)" fill="none"><rect width="1440" height="1500" x="0" y="0" fill="#0e2a47"></rect><path d="M757 396L-309 -670" stroke-width="8" stroke="url(#SvgjsLinearGradient1346)" stroke-linecap="round" class="TopLeft"></path><path d="M797 411L1435 1049" stroke-width="6" stroke="url(#SvgjsLinearGradient1347)" stroke-linecap="round" class="BottomRight"></path><path d="M394 1353L-15 944" stroke-width="10" stroke="url(#SvgjsLinearGradient1348)" stroke-linecap="round" class="BottomRight"></path><path d="M321 804L-747 -264" stroke-width="10" stroke="url(#SvgjsLinearGradient1347)" stroke-linecap="round" class="BottomRight"></path><path d="M525 734L155 364" stroke-width="10" stroke="url(#SvgjsLinearGradient1348)" stroke-linecap="round" class="BottomRight"></path><path d="M1307 1088L1803 1584" stroke-width="10" stroke="url(#SvgjsLinearGradient1347)" stroke-linecap="round" class="BottomRight"></path><path d="M853 530L1517 1194" stroke-width="8" stroke="url(#SvgjsLinearGradient1348)" stroke-linecap="round" class="BottomRight"></path><path d="M766 207L1136 577" stroke-width="10" stroke="url(#SvgjsLinearGradient1348)" stroke-linecap="round" class="BottomRight"></path><path d="M637 1302L-374 291" stroke-width="6" stroke="url(#SvgjsLinearGradient1347)" stroke-linecap="round" class="BottomRight"></path><path d="M1217 1307L1879 1969" stroke-width="6" stroke="url(#SvgjsLinearGradient1348)" stroke-linecap="round" class="BottomRight"></path><path d="M58 680L1108 1730" stroke-width="8" stroke="url(#SvgjsLinearGradient1347)" stroke-linecap="round" class="BottomRight"></path><path d="M855 1489L1385 2019" stroke-width="10" stroke="url(#SvgjsLinearGradient1348)" stroke-linecap="round" class="BottomRight"></path><path d="M246 574L1198 1526" stroke-width="6" stroke="url(#SvgjsLinearGradient1347)" stroke-linecap="round" class="BottomRight"></path><path d="M583 58L-411 -936" stroke-width="6" stroke="url(#SvgjsLinearGradient1347)" stroke-linecap="round" class="BottomRight"></path><path d="M513 1085L1140 1712" stroke-width="6" stroke="url(#SvgjsLinearGradient1348)" stroke-linecap="round" class="BottomRight"></path><path d="M1145 732L1828 1415" stroke-width="6" stroke="url(#SvgjsLinearGradient1346)" stroke-linecap="round" class="TopLeft"></path><path d="M1424 499L630 -295" stroke-width="6" stroke="url(#SvgjsLinearGradient1348)" stroke-linecap="round" class="BottomRight"></path><path d="M108 1197L-489 600" stroke-width="8" stroke="url(#SvgjsLinearGradient1348)" stroke-linecap="round" class="BottomRight"></path><path d="M50 205L-562 -407" stroke-width="8" stroke="url(#SvgjsLinearGradient1348)" stroke-linecap="round" class="BottomRight"></path><path d="M399 185L1430 1216" stroke-width="6" stroke="url(#SvgjsLinearGradient1347)" stroke-linecap="round" class="BottomRight"></path><path d="M50 405L918 1273" stroke-width="10" stroke="url(#SvgjsLinearGradient1349)" stroke-linecap="round" class="TopLeft"></path><path d="M55 190L-717 -582" stroke-width="6" stroke="url(#SvgjsLinearGradient1346)" stroke-linecap="round" class="TopLeft"></path><path d="M1098 775L193 -130" stroke-width="6" stroke="url(#SvgjsLinearGradient1347)" stroke-linecap="round" class="BottomRight"></path><path d="M635 947L1137 1449" stroke-width="6" stroke="url(#SvgjsLinearGradient1346)" stroke-linecap="round" class="TopLeft"></path><path d="M801 1317L-184 332" stroke-width="10" stroke="url(#SvgjsLinearGradient1348)" stroke-linecap="round" class="BottomRight"></path><path d="M224 751L-820 -293" stroke-width="6" stroke="url(#SvgjsLinearGradient1349)" stroke-linecap="round" class="TopLeft"></path><path d="M392 1026L1279 1913" stroke-width="10" stroke="url(#SvgjsLinearGradient1347)" stroke-linecap="round" class="BottomRight"></path><path d="M444 1233L1236 2025" stroke-width="10" stroke="url(#SvgjsLinearGradient1349)" stroke-linecap="round" class="TopLeft"></path><path d="M1307 179L2110 982" stroke-width="8" stroke="url(#SvgjsLinearGradient1349)" stroke-linecap="round" class="TopLeft"></path><path d="M1249 630L2022 1403" stroke-width="8" stroke="url(#SvgjsLinearGradient1346)" stroke-linecap="round" class="TopLeft"></path><path d="M1120 527L1631 1038" stroke-width="8" stroke="url(#SvgjsLinearGradient1347)" stroke-linecap="round" class="BottomRight"></path><path d="M13 1207L-921 273" stroke-width="10" stroke="url(#SvgjsLinearGradient1346)" stroke-linecap="round" class="TopLeft"></path><path d="M748 493L29 -226" stroke-width="8" stroke="url(#SvgjsLinearGradient1349)" stroke-linecap="round" class="TopLeft"></path><path d="M662 1068L-279 127" stroke-width="8" stroke="url(#SvgjsLinearGradient1348)" stroke-linecap="round" class="BottomRight"></path><path d="M467 407L-2 -62" stroke-width="8" stroke="url(#SvgjsLinearGradient1346)" stroke-linecap="round" class="TopLeft"></path><path d="M493 609L1025 1141" stroke-width="8" stroke="url(#SvgjsLinearGradient1349)" stroke-linecap="round" class="TopLeft"></path><path d="M616 459L-91 -248" stroke-width="8" stroke="url(#SvgjsLinearGradient1347)" stroke-linecap="round" class="BottomRight"></path><path d="M690 506L1188 1004" stroke-width="6" stroke="url(#SvgjsLinearGradient1348)" stroke-linecap="round" class="BottomRight"></path><path d="M1371 358L2030 1017" stroke-width="8" stroke="url(#SvgjsLinearGradient1348)" stroke-linecap="round" class="BottomRight"></path><path d="M517 643L-516 -390" stroke-width="10" stroke="url(#SvgjsLinearGradient1347)" stroke-linecap="round" class="BottomRight"></path><path d="M483 527L1311 1355" stroke-width="10" stroke="url(#SvgjsLinearGradient1347)" stroke-linecap="round" class="BottomRight"></path><path d="M1400 1328L734 662" stroke-width="8" stroke="url(#SvgjsLinearGradient1349)" stroke-linecap="round" class="TopLeft"></path><path d="M322 1374L726 1778" stroke-width="10" stroke="url(#SvgjsLinearGradient1347)" stroke-linecap="round" class="BottomRight"></path><path d="M711 1421L1509 2219" stroke-width="6" stroke="url(#SvgjsLinearGradient1349)" stroke-linecap="round" class="TopLeft"></path><path d="M262 865L785 1388" stroke-width="6" stroke="url(#SvgjsLinearGradient1347)" stroke-linecap="round" class="BottomRight"></path><path d="M89 603L-979 -465" stroke-width="6" stroke="url(#SvgjsLinearGradient1348)" stroke-linecap="round" class="BottomRight"></path><path d="M577 269L1307 999" stroke-width="6" stroke="url(#SvgjsLinearGradient1346)" stroke-linecap="round" class="TopLeft"></path><path d="M14 213L798 997" stroke-width="8" stroke="url(#SvgjsLinearGradient1349)" stroke-linecap="round" class="TopLeft"></path><path d="M1313 468L820 -25" stroke-width="6" stroke="url(#SvgjsLinearGradient1346)" stroke-linecap="round" class="TopLeft"></path><path d="M1439 1128L490 179" stroke-width="6" stroke="url(#SvgjsLinearGradient1349)" stroke-linecap="round" class="TopLeft"></path><path d="M915 1000L1683 1768" stroke-width="8" stroke="url(#SvgjsLinearGradient1346)" stroke-linecap="round" class="TopLeft"></path><path d="M1376 789L1775 1188" stroke-width="8" stroke="url(#SvgjsLinearGradient1349)" stroke-linecap="round" class="TopLeft"></path></g><defs><mask id="SvgjsMask1345"><rect width="1440" height="1500" fill="#ffffff"></rect></mask><linearGradient x1="100%" y1="100%" x2="0%" y2="0%" id="SvgjsLinearGradient1346"><stop stop-color="rgba(28, 83, 142, 0)" offset="0"></stop><stop stop-color="#1c538e" offset="1"></stop></linearGradient><linearGradient x1="0%" y1="0%" x2="100%" y2="100%" id="SvgjsLinearGradient1347"><stop stop-color="rgba(165, 22, 22, 0)" offset="0"></stop><stop stop-color="rgba(165, 22, 22, 1)" offset="1"></stop></linearGradient><linearGradient x1="0%" y1="0%" x2="100%" y2="100%" id="SvgjsLinearGradient1348"><stop stop-color="rgba(28, 83, 142, 0)" offset="0"></stop><stop stop-color="#1c538e" offset="1"></stop></linearGradient><linearGradient x1="100%" y1="100%" x2="0%" y2="0%" id="SvgjsLinearGradient1349"><stop stop-color="rgba(165, 22, 22, 0)" offset="0"></stop><stop stop-color="rgba(165, 22, 22, 1)" offset="1"></stop></linearGradient></defs></svg>